#!OML:ASF H:\LiuWeirdWalks\Patient Classification 1\Patient 1\Session 1\male.ASF
:FULLY-SPECIFIED
:DEGREES
261
root 1.60811 17.6831 16.3613 -0.381861 1.56856 8.49768
lowerback 6.71642 0.999533 -9.00175
upperback -1.01303 0.553814 -0.423318
thorax -4.93478 0.519655 4.55503
lowerneck -18.3232 -0.730646 2.38806
upperneck 21.3055 -0.737841 -3.97423
head 9.7568 -0.613288 -1.88895
rclavicle -2.83113e-015 3.33958e-014
rhumerus -42.1719 -15.261 -70.3315
rradius 19.7383
rwrist 8.01291
rhand -16.8175 -1.5911
rfingers 7.12502
rthumb 9.41139 -31.361
lclavicle -2.83113e-015 3.33958e-014
lhumerus -31.3033 -3.63547 88.268
lradius 30.0721
lwrist 15.9133
lhand -16.2234 0.842362
lfingers 7.12502
lthumb 9.98463 30.5855
rfemur -31.3934 -13.0469 11.3618
rtibia 58.1603
rfoot -17.0235 -25.8816
rtoes -7.14826
lfemur 0.521074 -2.66111 -32.2344
ltibia 26.1593
lfoot -13.3 16.7701
ltoes -11.8223
262
root 1.60776 17.6845 16.6522 -0.0199511 1.81818 9.01201
lowerback 6.6021 0.767354 -9.69907
upperback -1.00754 0.194321 -0.5284
thorax -4.81804 0.35446 4.87578
lowerneck -18.8479 -0.544907 2.65723
upperneck 21.3744 -0.534141 -4.10798
head 9.88481 -0.516732 -1.96047
rclavicle -9.69075e-016 -1.66979e-014
rhumerus -43.1307 -17.1553 -68.4611
rradius 18.2311
rwrist 10.3439
rhand -16.1166 -2.017
rfingers 7.12502
rthumb 10.0877 -31.7552
lclavicle -9.69075e-016 -1.66979e-014
lhumerus -30.0115 -4.21958 88.2313
lradius 31.543
lwrist 16.9771
lhand -16.1761 0.801649
lfingers 7.12502
lthumb 10.0302 30.5426
rfemur -32.7606 -12.9894 11.2541
rtibia 55.5815
rfoot -16.4038 -25.5884
rtoes -7.46249
lfemur 2.09707 -2.5489 -32.7271
ltibia 24.4057
lfoot -13.0143 16.342
ltoes -12.527
263
root 1.60653 17.6847 16.9441 0.361324 2.09464 9.50201
lowerback 6.45066 0.195923 -10.659
upperback -0.993702 -0.629765 -0.617767
thorax -4.5852 -0.0401749 5.4052
lowerneck -19.2621 0.104691 3.79601
upperneck 21.3163 0.148401 -4.64655
head 9.96801 -0.175428 -2.25025
rclavicle 1.78906e-015 -1.86858e-014
rhumerus -43.8353 -18.7073 -66.8583
rradius 16.6843
rwrist 13.2101
rhand -15.5418 -2.34761
rfingers 7.12502
rthumb 10.6422 -32.0581
lclavicle 1.78906e-015 -1.86858e-014
lhumerus -28.8241 -3.98541 87.4963
lradius 33.1134
lwrist 17.9932
lhand -16.1292 0.690562
lfingers 7.12502
lthumb 10.0755 30.4294
rfemur -34.0102 -12.9416 11.1267
rtibia 52.818
rfoot -15.5859 -25.1859
rtoes -7.8091
lfemur 3.70353 -2.37281 -33.1502
ltibia 22.5523
lfoot -12.6454 15.7905
ltoes -13.336
264
root 1.60389 17.6739 17.2356 0.744949 2.4174 9.93753
lowerback 6.33271 -0.529447 -11.6677
upperback -0.997016 -1.66318 -0.694124
thorax -4.32443 -0.540354 5.98495
lowerneck -19.5339 0.940819 5.27073
upperneck 21.2109 1.01332 -5.30944
head 10.0345 0.262764 -2.612
rclavicle -9.87711e-015 -1.98785e-015
rhumerus -44.5724 -20.2972 -65.0989
rradius 15.1782
rwrist 16.5195
rhand -15.0911 -2.59022
rfingers 7.12502
rthumb 11.0769 -32.2779
lclavicle -9.87711e-015 -1.98785e-015
lhumerus -27.7465 -3.38755 86.4147
lradius 34.7263
lwrist 18.8983
lhand -16.0749 0.516556
lfingers 7.12502
lthumb 10.1279 30.2528
rfemur -35.1514 -12.897 11.004
rtibia 49.9267
rfoot -14.6507 -24.6976
rtoes -8.25046
lfemur 5.3454 -2.1171 -33.4581
ltibia 20.6241
lfoot -12.221 15.085
ltoes -14.2346
265
root 1.60022 17.671 17.528 1.13339 2.78901 10.3349
lowerback 6.27195 -1.27276 -12.6272
upperback -1.05373 -2.7255 -0.77028
thorax -4.11656 -1.05305 6.52709
lowerneck -19.5771 1.77978 6.79491
upperneck 21.0538 1.87158 -5.97338
head 10.0618 0.703147 -2.98028
rclavicle 2.33696e-014 -2.98177e-014
rhumerus -45.6199 -22.0947 -62.8888
rradius 13.8003
rwrist 20.1637
rhand -14.7286 -2.7584
rfingers 7.12502
rthumb 11.4265 -32.427
lclavicle 2.33696e-014 -2.98177e-014
lhumerus -26.8077 -2.76921 85.2379
lradius 36.3416
lwrist 19.7005
lhand -16.0068 0.278754
lfingers 7.12502
lthumb 10.1936 30.0118
rfemur -36.1102 -12.821 10.8505
rtibia 46.8904
rfoot -13.6955 -24.1805
rtoes -8.76226
lfemur 7.02704 -1.79662 -33.6595
ltibia 18.6056
lfoot -11.7301 14.2117
ltoes -15.2096
266
root 1.5949 17.6678 17.8209 1.51973 3.20988 10.642
lowerback 6.25373 -1.89564 -13.3809
upperback -1.14917 -3.61938 -0.828367
thorax -3.9899 -1.48136 6.95062
lowerneck -19.5299 2.41915 8.00029
upperneck 20.9184 2.51488 -6.47178
head 10.0768 1.03873 -3.26621
rclavicle 4.049e-014 2.10712e-014
rhumerus -47.1691 -24.2272 -59.963
rradius 12.6203
rwrist 23.9425
rhand -14.41 -2.92521
rfingers 7.12502
rthumb 11.7338 -32.5766
lclavicle 4.049e-014 2.10712e-014
lhumerus -25.9217 -2.45627 84.2398
lradius 37.9122
lwrist 20.3727
lhand -15.9468 0.00681929
lfingers 7.12502
lthumb 10.2514 29.737
rfemur -36.9054 -12.6579 10.7041
rtibia 43.7894
rfoot -12.8922 -23.712
rtoes -9.30007
lfemur 8.73507 -1.43227 -33.6946
ltibia 16.5293
lfoot -11.1873 13.1777
ltoes -16.2603
267
root 1.58773 17.664 18.1145 1.90562 3.6854 10.8517
lowerback 6.23461 -2.32489 -13.8829
upperback -1.26126 -4.23633 -0.854138
thorax -3.93685 -1.77276 7.24315
lowerneck -19.4574 2.75861 8.68898
upperneck 20.7837 2.84165 -6.7291
head 10.0582 1.21496 -3.42416
rclavicle 3.83903e-015 1.11319e-014
rhumerus -49.3254 -26.5855 -56.2476
rradius 11.6788
rwrist 27.6856
rhand -14.1494 -3.10026
rfingers 7.12502
rthumb 11.985 -32.7371
lclavicle 3.83903e-015 1.11319e-014
lhumerus -25.004 -2.5874 83.5865
lradius 39.4321
lwrist 20.9187
lhand -15.9008 -0.265384
lfingers 7.12502
lthumb 10.2958 29.4626
rfemur -37.5073 -12.3687 10.5487
rtibia 40.6125
rfoot -12.2956 -23.3895
rtoes -9.84385
lfemur 10.5949 -1.07691 -33.5626
ltibia 14.146
lfoot -10.4427 11.9616
ltoes -17.3944
268
root 1.57934 17.6589 18.41 2.28184 4.22091 10.9748
lowerback 6.18104 -2.53635 -14.1178
upperback -1.41345 -4.54044 -0.856206
thorax -3.98686 -1.90616 7.39074
lowerneck -19.2912 2.75087 8.80261
upperneck 20.6688 2.80621 -6.73022
head 9.98517 1.20931 -3.44612
rclavicle -2.2326e-014 -4.45278e-014
rhumerus -52.1696 -28.8436 -51.8644
rradius 11.0094
rwrist 31.091
rhand -13.949 -3.31273
rfingers 7.12502
rthumb 12.1783 -32.9382
lclavicle -2.2326e-014 -4.45278e-014
lhumerus -24.108 -3.24557 83.3481
lradius 40.9074
lwrist 21.3645
lhand -15.895 -0.550749
lfingers 7.12502
lthumb 10.3014 29.177
rfemur -37.9414 -11.9444 10.3473
rtibia 37.5089
rfoot -12.0383 -23.259
rtoes -10.3261
lfemur 12.5283 -0.784712 -33.2912
ltibia 11.6415
lfoot -9.56738 10.6341
ltoes -18.6302
269
root 1.57063 17.6657 18.7077 2.65081 4.82001 11.0258
lowerback 6.11273 -2.61356 -14.171
upperback -1.51478 -4.64319 -0.81797
thorax -4.02712 -1.94722 7.46615
lowerneck -19.346 2.54832 8.49766
upperneck 20.5993 2.56866 -6.5671
head 9.9424 1.0928 -3.36906
rclavicle -3.66137e-014 2.78299e-014
rhumerus -55.3267 -30.9022 -47.1181
rradius 10.533
rwrist 34.225
rhand -13.8077 -3.54925
rfingers 7.12502
rthumb 12.3145 -33.1666
lclavicle -3.66137e-014 2.78299e-014
lhumerus -23.0587 -4.17034 83.3869
lradius 42.3444
lwrist 21.7884
lhand -15.9745 -0.932063
lfingers 7.12502
lthumb 10.2248 28.7994
rfemur -38.1832 -11.3957 10.0725
rtibia 34.5441
rfoot -12.115 -23.3386
rtoes -10.7536
lfemur 14.527 -1.21175 -33.0715
ltibia 8.99722
lfoot -8.27352 9.80254
ltoes -19.9487
270
root 1.56098 17.6573 19.0074 3.00286 5.47803 11
lowerback 6.03589 -2.70411 -14.1378
upperback -1.59427 -4.75232 -0.754098
thorax -4.0408 -1.99651 7.51988
lowerneck -19.4207 2.3483 8.20291
upperneck 20.5183 2.33495 -6.42331
head 9.90124 0.976294 -3.29991
rclavicle 3.44891e-014 9.93923e-015
rhumerus -58.5453 -32.525 -42.4168
rradius 10.1782
rwrist 37.1768
rhand -13.7343 -3.83973
rfingers 7.12502
rthumb 12.3853 -33.4528
lclavicle 3.44891e-014 9.93923e-015
lhumerus -22.021 -5.02626 83.3993
lradius 43.788
lwrist 22.1494
lhand -16.1001 -1.36951
lfingers 7.12502
lthumb 10.1036 28.3679
rfemur -38.345 -10.739 9.74253
rtibia 31.8743
rfoot -12.4188 -23.611
rtoes -11.1301
lfemur 16.6401 -1.69238 -32.7824
ltibia 6.18161
lfoot -6.78975 8.86236
ltoes -21.2979
271
root 1.5508 17.6472 19.3092 3.33346 6.17718 10.8837
lowerback 5.95626 -2.82907 -14.0157
upperback -1.64187 -4.89586 -0.665156
thorax -4.01427 -2.06959 7.55134
lowerneck -19.5252 2.20124 8.0126
upperneck 20.4074 2.15921 -6.35619
head 9.86306 0.88537 -3.26695
rclavicle 6.92019e-015 7.15625e-015
rhumerus -59.2872 -31.6636 -42.3176
rradius 9.8726
rwrist 35.7763
rhand -14.0359 -4.83444
rfingers 7.12502
rthumb 12.0945 -34.4649
lclavicle 6.92019e-015 7.15625e-015
lhumerus -20.9857 -5.74232 83.3254
lradius 45.2355
lwrist 22.4336
lhand -16.2467 -1.90907
lfingers 7.12502
lthumb 9.96212 27.8352
rfemur -38.4065 -9.99112 9.39751
rtibia 29.5652
rfoot -12.8613 -24.0236
rtoes -11.4441
lfemur 19.0271 -2.20766 -32.4115
ltibia 2.84993
lfoot -4.93205 7.74635
ltoes -22.6388
272
root 1.54044 17.6353 19.6133 3.62175 6.90064 10.6829
lowerback 5.89638 -2.95816 -13.8014
upperback -1.63271 -5.03474 -0.539475
thorax -3.94224 -2.14865 7.56941
lowerneck -19.8302 2.07055 7.77782
upperneck 20.356 2.00531 -6.28123
head 9.88472 0.799622 -3.22266
rclavicle -8.27193e-014 -5.56597e-015
rhumerus -59.926 -30.8812 -42.2885
rradius 9.58271
rwrist 34.5057
rhand -14.4127 -5.72453
rfingers 7.12502
rthumb 11.7311 -35.376
lclavicle -8.27193e-014 -5.56597e-015
lhumerus -19.9027 -6.32614 83.2263
lradius 46.6757
lwrist 22.642
lhand -16.4116 -2.56259
lfingers 7.12502
lthumb 9.80308 27.1892
rfemur -38.4098 -9.2412 9.09619
rtibia 27.7792
rfoot -13.377 -24.4263
rtoes -11.7931
lfemur 21.1942 -2.73971 -31.9469
ltibia -4.45278e-014
lfoot -3.13861 6.63509
ltoes -23.9468
273
root 1.53039 17.6214 19.92 3.85368 7.60592 10.4373
lowerback 5.88035 -3.16866 -13.6065
upperback -1.56257 -5.28455 -0.391422
thorax -3.80094 -2.28995 7.62716
lowerneck -20.2819 2.09106 7.77124
upperneck 20.3239 2.01168 -6.3292
head 9.95733 0.789744 -3.23886
rclavicle 6.21948e-014 -3.57812e-015
rhumerus -60.2206 -30.0708 -42.6194
rradius 9.23784
rwrist 33.4667
rhand -14.933 -6.47917
rfingers 7.12502
rthumb 11.2294 -36.1586
lclavicle 6.21948e-014 -3.57812e-015
lhumerus -18.8302 -6.52868 82.9203
lradius 48.1192
lwrist 22.7816
lhand -16.5207 -3.3319
lfingers 7.12502
lthumb 9.69783 26.4248
rfemur -38.3453 -8.6291 8.90586
rtibia 26.5111
rfoot -13.7724 -24.6155
rtoes -12.1809
lfemur 21.9479 -3.25008 -31.3849
ltibia 1.59028e-014
lfoot -2.48055 5.95464
ltoes -25.2171
